<svg width="68" height="68" fill="none" xmlns="http://www.w3.org/2000/svg"><g clip-path="url(#clip0)"><path d="M.037 37.387c.018-.063.045-.134.054-.197a12.04 12.04 0 01.449-2.388c.332-1.167.682-2.325 1.015-3.492.26-.898.494-1.796.754-2.694.296-1.032.629-2.055 1.069-3.043.152-.34.323-.682.503-1.014.332-.62.691-1.24 1.015-1.858.476-.898.96-1.805 1.4-2.72.54-1.114 1.042-2.236 1.563-3.358.35-.745.755-1.464 1.204-2.146.53-.808 1.06-1.607 1.553-2.433.387-.655.701-1.337.98-2.046.206-.53.448-1.05.673-1.571l.162-.377c1.202-2.854-.944-3.325-1.165-5.823-.054-.575 0-1.158.036-1.733.009-.08.018-.17.054-.251.08-.216.305-.296.512-.198.063.027.125.063.188.108 1.73 1.265 3.742.398 5.539 1.128.099.044.18.053.287.018.62-.207 1.258-.395 1.904-.485C20.397.733 21 .67 21.61.607c.755-.08 1.51.018 2.264.081.377.036.745.126 1.113.189.063.009.126.018.189.018.35.027.7.053 1.05.071.692.036 1.366.189 2.03.377.423.126.854.252 1.267.386.215.072.413.045.62-.017 1.104-.35 2.218-.7 3.332-1.042.18-.054.377-.072.565-.09.162-.018.27.054.342.189.036.072.09.144.134.215.072.108.117.225.081.341-.188.638-.332 1.284-.593 1.895-.098.233-.215.467-.323.7a3.19 3.19 0 00-.305 1.553c.027.404.108.79.215 1.176.198.673.324 1.356.431 2.047.072.449.135.898.189 1.355.045.36.072.728.08 1.087.01.359-.017.727-.026 1.086-.01.359.018.71 0 1.068a13.81 13.81 0 01-.108 1.212 5.8 5.8 0 01-.215 1.042 13.23 13.23 0 01-.54 1.553c-.161.359-.404.69-.61 1.023a4.217 4.217 0 01-.934 1.023c-.08.063-.153.135-.234.207.162.224 1.877-.852 5.877 2.648 7.427 6.006 18.27 4.908 18 7-.242 3.582-9.273 8.163-9.094 8.414.144.198.297.404.458.593a.533.533 0 00.243.152c.503.153 1.006.315 1.536.369l.655.08c.234.036.467.081.692.117.144.018.287.036.422.045.566.063 1.132.134 1.697.188.162.018.324.01.494.01h.153c.09 0 .189.008.279.017.934.045 1.868.1 2.802.153.233.018.467.063.7.08.386.019.773.019 1.15.046.206.009.413.063.61.071.252.018.494.01.746 0 .251 0 .494-.026.745-.017.404.009.809.009 1.213-.081.152-.036.314-.045.467-.063.476-.036 1.086.377 1.185.808a.596.596 0 01-.027.395c-.09.215-.206.404-.377.565-.08.072-.153.144-.242.225.161.125.323.233.467.35.161.135.27.314.314.52a.642.642 0 01-.198.62c-.197.189-.44.287-.7.35-.036.01-.063.018-.126.027.036.072.063.135.099.198a.687.687 0 01.054.592c-.18.52-.7.88-1.249.87a2.279 2.279 0 01-.97-.242c-.35-.179-.727-.26-1.086-.377-.494-.161-1.006-.215-1.518-.224-.44-.009-.89-.063-1.33-.036-1.014.063-2.011-.072-3.017-.126-.52-.026-1.042-.08-1.554-.152-.7-.099-1.4-.18-2.101-.225-.306-.026-.602-.098-.907-.152-.225-.036-.45-.09-.674-.108a11.21 11.21 0 01-1.221-.206c-.35-.072-.7-.117-1.051-.171-.341-.054-.692-.108-1.033-.17-.225-.037-.449-.081-.674-.126-.287-.054-.574-.108-.88-.162-.126.054-.188.18-.27.296-.34.503-.673 1.006-1.023 1.509-.35.493-.71.978-1.069 1.472-.027.036-.045.072-.09.126.09.027.162.062.234.071.494.045.97.171 1.437.306l.144.026c.467.054.934.117 1.392.216.224.045.449.063.673.09.315.036.62.072.934.117.44.062.871.134 1.312.206.34.054.691.108 1.032.17.378.063.755.135 1.141.198l.485.08c.242.037.494.073.745.1.8.071 1.608.143 2.407.197.53.036 1.07.045 1.608.072.431.018.853.036 1.284.045.386.009.773-.01 1.15 0 .296.009.584.027.88.054a13.12 13.12 0 011.67.233c.755.144 1.482.35 2.219.53.862.206 1.67.538 2.47.888.233.1.449.243.682.35.665.306 1.302.656 1.922 1.042.422.27.808.584 1.177.925.215.197.413.413.575.664.18.26.332.539.34.862.01.152-.008.314-.053.458-.108.395-.207.799-.35 1.185-.243.664-.683 1.176-1.258 1.58-.476.332-.952.664-1.5.861-.458.162-.934.26-1.419.288-.314.018-.62-.027-.934-.063-.27-.036-.547-.027-.808-.063a25.855 25.855 0 01-1.158-.188c-.36-.072-.728-.144-1.087-.243-.575-.18-1.168-.422-1.77-.655a81.897 81.897 0 00-3.233-1.194c-.889-.305-1.796-.548-2.703-.8-.413-.116-.835-.179-1.248-.278-.315-.08-.63-.17-.952-.26-1.105-.314-11.164-1.257-12.269-1.553-.592-.162-1.185-.305-1.742-.566-.36-.17-7.885-.233-7.715.18.144.341.332.664.503.988.072.134.144.278.225.413.197.34.404.69.601 1.032.1.17.198.35.297.52.126.234.251.467.395.692.332.52.512 1.095.61 1.697.575 3.217 5.786 3.753 6.698 8.008.018.08.045.161.072.242.17.44.224.898.153 1.365-.063.422-.387.682-.854.574-.143-.036-.278-.099-.44-.161-.009.035-.027.09-.036.143-.044.243-.134.45-.34.602a.67.67 0 01-.728.045 1.346 1.346 0 01-.44-.431c-.018-.027-.036-.054-.072-.1a1.19 1.19 0 00-.108.145c-.135.224-.305.395-.584.412-.018 0-.036.019-.054.028-.045 0-.09-.01-.125-.01-.01-.008-.018-.026-.027-.026-.36-.108-.557-.368-.683-.71C30.546 63.5 28 62.5 26.28 61.895a40.6 40.6 0 00-.88-.116c-.369-.054-.737-.108-1.096-.153a1.099 1.099 0 00-.17-.018c-.216-.027-.432-.08-.639-.063-.305.027-.592-.053-.889-.09-.27-.026-.53-.116-.79-.161-.53-.099-1.06-.224-1.545-.485-.377-.206-.772-.368-1.15-.583a12.79 12.79 0 01-1.796-1.24 3.865 3.865 0 00-.43-.322c-.656-.404-1.249-.907-1.842-1.392-.422-.341-1.787-2.442-4.365-3.366a8.377 8.377 0 01-1.347-.494c-.242-.117-.485-.207-.727-.314-.207-.09-.413-.162-.611-.27-.584-.34-1.177-.682-1.76-1.041-.26-.162-.503-.35-.746-.53-.386-.296-.655-.709-.97-1.077-.242-.296-.458-.62-.7-.916-.279-.34-.575-.673-.844-1.023a8.479 8.479 0 01-.521-.71c-.35-.529-.629-1.103-.872-1.687a56.216 56.216 0 01-.79-2.038 11.497 11.497 0 01-.539-1.957c-.08-.449-.125-.898-.17-1.355a16.975 16.975 0 01-.081-1.167c-.01-.422.018-.844.027-1.257 0-.072-.018-.135-.027-.207l.027-.476z" fill="#F26B5C"/><path d="M27.258 20.752c.009-.117.009-.188.018-.287.063-.018.143-.072.206-.063.378.018.728-.099 1.087-.207.503-.152 1.015-.278 1.527-.413.278-.071.548-.161.79-.314.117-.08.162-.08.35-.036.01.018.036.036.045.063a.38.38 0 01.036.108c-.072.233-.278.323-.467.404-.27.108-.557.18-.835.26-.512.144-1.033.26-1.545.413-.278.081-.557.135-.835.153-.117 0-.234-.054-.377-.081zM22.893 20.294c.17.045.35.072.512.135.413.162.844.18 1.284.197.162.01.323-.018.485-.027.135 0 .27-.009.404 0 .126.01.18.063.198.162.018.108-.036.189-.153.224a1.58 1.58 0 01-.359.054c-.287.018-.566.036-.853.018a4.222 4.222 0 01-.737-.125c-.26-.063-.52-.144-.781-.225-.054-.018-.108-.036-.153-.072-.09-.063-.116-.161-.072-.242a.235.235 0 01.225-.099zM61.314 55.7l-.377-.107c-.188-.063-.377-.117-.566-.189a.734.734 0 01-.18-.107c-.071-.063-.143-.126-.107-.234.027-.09.117-.134.251-.107.108.017.207.044.306.09.449.179.907.269 1.392.287.054 0 .117.009.17-.01.108-.026.198.01.288.1-.01.071-.01.152-.018.25a10.05 10.05 0 00-.288.108 14.92 14.92 0 00-.87-.08zM60.147 49.587c-.027.054-.063.108-.09.162a.577.577 0 01-.35-.036c-.413-.162-.836-.314-1.276-.395a1.43 1.43 0 01-.098-.027c-.225-.08-.252-.207-.09-.404.233-.027.458.018.682.09.306.099.611.197.907.314.126.063.252.135.315.296zM61.997 50.287c.108-.206.161-.233.368-.152.36.152.683.359.997.574.063.045.108.108.162.17.063.082.063.19 0 .252-.063.072-.153.081-.234.045-.036-.018-.08-.036-.108-.063-.26-.26-.592-.395-.907-.556-.197-.09-.215-.1-.278-.27zM62.724 53.95c-.134-.009-.27-.009-.404-.027-.27-.054-.539-.117-.808-.18-.162-.044-.315-.098-.386-.296.027-.053.063-.107.098-.188.1.018.198.018.297.045.314.072.637.143.952.215.027.01.054.01.08.018.225.054.261.135.171.413zM58.018 54.722c-.09.099-.197.108-.305.09-.252-.045-.503-.08-.755-.135-.116-.027-.233-.053-.34-.107a.55.55 0 01-.19-.162c-.08-.117-.017-.251.126-.26a.287.287 0 01.17.027c.342.143.71.161 1.06.224.1.018.18.036.252.126-.009.054-.009.134-.018.197zM52.567 53.52c.009-.1.027-.18.036-.252a.451.451 0 01.404.027c.296.17.62.242.943.323.072.018.143.054.206.072.045.251-.009.314-.224.305-.503-.009-.934-.206-1.365-.476zM63.317 52.137c-.162.188-.188.197-.377.09-.305-.171-.602-.35-.907-.53-.01 0-.01-.01-.018-.01-.126-.08-.18-.206-.135-.304.054-.108.198-.135.341-.063.144.072.288.161.423.251.17.108.332.216.511.314.1.063.153.126.162.252zM65.284 51.769c.018.009.09.035.144.08l.835.7a.2.2 0 01.045.27c-.054.08-.162.108-.27.054a4.366 4.366 0 01-.332-.234c-.18-.143-.36-.296-.548-.448-.036-.036-.072-.063-.108-.108-.053-.072-.053-.144-.017-.225.044-.08.116-.107.25-.09zM57.102 52.298c.297.099.575.189.862.279.09.026.18.035.27.071.116.036.116.045.18.189-.09.206-.144.251-.333.197-.305-.08-.61-.18-.916-.278a.44.44 0 01-.18-.117c-.125-.116-.107-.224.036-.314.018-.009.054-.018.081-.027zM64.26 55.36c-.018-.036-.036-.054-.045-.081-.054-.17.01-.26.189-.27.242-.008.494-.017.736-.035.135-.01.27-.027.413-.045 0 0 .018 0 .027.009.081.044.171.098.153.206-.018.108-.099.17-.207.189a7.672 7.672 0 01-.655.08c-.045.01-.09-.008-.126 0-.162.072-.314.018-.485-.053zM65.014 54.255c-.09-.036-.188-.063-.269-.107-.08-.045-.108-.126-.08-.225.026-.09.098-.135.197-.135h.655c.081 0 .171-.008.252-.008.09 0 .188-.01.278.017.054.019.126.081.144.135.018.045-.027.135-.063.162-.08.054-.18.08-.27.108-.071.017-.152.017-.233.026-.197.01-.395.01-.593.01-.008 0-.008.008-.017.017zM59.222 50.71c.099-.18.18-.225.359-.18l.296.054c.144.027.279.044.413.08a.365.365 0 01.153.108c.099.117.027.288-.126.305a.545.545 0 01-.17-.009c-.225-.035-.45-.09-.665-.125-.144-.027-.242-.081-.26-.234zM56.32 50.018c.44-.036 1.016.036 1.177.144.036.206.01.287-.188.296-.234.018-.476-.018-.719-.045-.135-.018-.287-.027-.35-.224a1.39 1.39 0 01.08-.17z" fill="#fff"/><path d="M12.969 9.019c-.252.574-.368 1.176-.225 1.795.153.665.332 1.329.53 1.984.108.377.26.754.494 1.068.925 1.24 2.182 1.715 3.7 1.563.638-.063 1.195-.324 1.734-.665a82.872 82.872 0 011.751-1.086c.575-.35 1.14-.691 1.635-1.158.7-.673 1.221-1.445 1.41-2.415.107-.539.098-1.06-.117-1.58a7.395 7.395 0 00-.826-1.5c-.593-.816-1.357-1.39-2.273-1.795-.556-.242-1.158-.287-1.796-.377-.197.01-.44.01-.691.018a2.682 2.682 0 00-.926.17c-.673.261-1.32.566-1.912.997-.369.27-.737.539-1.033.898-.243.296-.485.583-.71.88-.287.386-.557.772-.745 1.203z" fill="#D93D3D"/><path d="M10.382 53.636a16.046 16.046 0 01-.646-.099c-.081-.009-.171-.027-.252-.036-.09-.009-.162.045-.17.126-.01.063.035.126.071.18.018.026.072.044.117.053.225.054.44.1.674.144.072-.009.143-.009.224-.027.126-.027.18-.099.17-.206-.017-.108-.098-.126-.188-.135zM7.93 53.546c-.251-.099-.512-.17-.763-.26h-.018c-.135.009-.207.117-.153.233a.21.21 0 00.1.099c.206.09.421.17.628.251 0-.009.009-.018.009-.027.036 0 .072.01.108.01.08 0 .143-.036.161-.108.036-.081 0-.17-.072-.198zM19.184 58.205a1.502 1.502 0 00-.126-.08c-.36-.243-.718-.485-.997-.835a.427.427 0 00-.09-.09c-.063-.045-.125-.063-.197-.01-.072.055-.108.118-.072.207a.736.736 0 00.108.18c.287.35.646.62 1.024.87.062.046.143.064.18.073.125.009.206 0 .242-.09.044-.09.009-.162-.072-.225zM22.022 59.543a3.676 3.676 0 01-1.222-.43c-.045-.028-.09-.055-.134-.064-.081-.027-.162-.009-.207.063a.166.166 0 00.027.215c.018.019.036.045.063.054.422.27.88.422 1.374.521.027 0 .054.01.09.01.143 0 .224-.055.233-.163 0-.116-.063-.18-.224-.206zM21.25 57.999v-.01h.044c.09 0 .17 0 .207-.107.027-.09-.01-.17-.117-.224-.054-.027-.108-.045-.162-.063a2.983 2.983 0 01-.96-.503c-.027-.018-.054-.045-.09-.063-.072-.036-.135-.027-.198.027s-.08.126-.045.189c.036.063.09.135.144.18.251.152.512.305.772.44.135.062.27.089.404.134zM25.012 59.83a.662.662 0 00-.188 0c-.252.027-.512.063-.764-.018-.026-.009-.053-.009-.08-.009-.1 0-.162.054-.189.144-.027.09.036.153.108.188.036.019.08.036.117.036.107.01.215.018.323.027v.018c.117 0 .224.018.341 0 .135-.009.27-.036.395-.072.072-.017.117-.09.1-.17a.173.173 0 00-.163-.144zM8.604 33.59c.018.071.045.152.08.224.046.08.109.135.207.099.09-.027.126-.09.117-.225 0-.009-.009-.063-.018-.116-.099-.44-.206-.89-.314-1.329-.045-.189-.126-.27-.243-.242-.116.027-.161.143-.116.323.09.422.188.844.287 1.266zM7.724 29.586a.289.289 0 00.09.188c.045.045.134.072.188.054.054-.009.09-.09.135-.126-.063-.359-.108-.7-.18-1.032-.018-.099-.125-.144-.215-.126-.081.018-.144.108-.135.216.036.278.072.556.117.826zM12.26 38.105c.035.027.08.054.125.081.072.036.153.027.189-.036.036-.045.044-.117.036-.18-.01-.053-.054-.098-.1-.134l-.745-.826c-.045-.054-.107-.09-.161-.135-.216.126-.234.189-.126.35.224.333.476.638.781.88zM9.529 35.385c-.09.036-.135.144-.08.251.098.225.206.45.322.674.027.054.108.08.135.107.135 0 .216-.071.216-.17a.224.224 0 00-.036-.126c-.099-.215-.207-.422-.315-.628-.053-.108-.152-.144-.242-.108zM9.987 31.929l-.323-.97c-.027-.08-.072-.134-.189-.143-.063-.01-.135.036-.144.125a.68.68 0 00.01.234c.09.287.188.565.287.853.018.044.045.09.072.134.054.072.125.126.224.081.09-.036.117-.117.099-.215a1.558 1.558 0 01-.036-.1z" fill="#fff"/><path d="M34.66 66.393c.419.076.807-.099.972-.496a2.01 2.01 0 00.146-.615c.045-.596-.133-1.142-.493-1.622-.074-.118-.138-.243-.23-.347-.3-.382-.688-.669-1.17-.77-.464-.1-.877.137-1.056.574-.127.312-.09.63-.022.954.138.59.408 1.124.777 1.598.289.347.61.64 1.076.724zM58.512 42.414c.306.108.629.135.943.153.333.009.638-.09.898-.287a.774.774 0 00.333-.62.963.963 0 00-.557-.915c-.27-.126-.557-.162-.862-.171-.423-.054-.827 0-1.222.189-.431.215-.548.628-.296 1.04.197.288.44.495.763.611z" fill="#F5EADF"/><path d="M11.73 53.106c.143-.395.269-.799.394-1.203.279-.951.521-1.912.89-2.837.197-.484.224-.978.161-1.49-.063-.476-.224-.915-.43-1.337-.477-1.006-.962-2.011-1.366-3.053a2.594 2.594 0 00-.862-1.122 4.454 4.454 0 00-1.204-.646c-.583-.225-1.185-.35-1.787-.467a5.023 5.023 0 01-1.5-.548c-.97-.556-2.002-.924-3.152-.888-.52.018-1.024.107-1.473.395-.422.269-.808.583-1.176.924.035.368.08.736.143 1.095.117.665.306 1.32.54 1.958.25.682.511 1.364.79 2.037.242.584.53 1.159.87 1.688.162.242.333.476.522.71.278.34.574.673.844 1.023.242.296.458.62.7.916.306.367.575.78.97 1.077.243.188.485.377.746.53.583.358 1.176.7 1.769 1.04.189.108.404.18.61.27.243.108.495.198.728.314.386.189.79.333 1.204.45.511-.073.88-.333 1.068-.836z" fill="#D93D3D"/><path d="M12.317 2.902c.316.806.776 1.552 1.219 2.289.029.046.057.093.094.123.172.195.398.22.603.056.04-.042.082-.083.131-.14.406-.468.774-.965 1.032-1.552.246-.584.193-.79-.386-1.064-.742-.36-1.537-.549-2.325-.797a.668.668 0 00-.328-.005c-.188.047-.25.151-.23.34.013.122.058.22.083.337l-.012.004c.032.143.078.282.119.409zM31.443 3.112c.18.18.368.359.548.547.188.189.35.17.503-.063.09-.143.188-.287.287-.43.18-.26.368-.521.557-.79a.787.787 0 00.108-.234c.045-.17-.072-.314-.252-.323-.045 0-.08.009-.125.018-.602.108-1.123.413-1.653.691-.018.009-.036.027-.054.036a.857.857 0 00-.08.144c-.028.206.062.314.161.404zM31.578 10.697a1.37 1.37 0 00-.369-.215 2.711 2.711 0 00-1.158-.278c-.575-.063-.934-.01-1.41.09-.35.062-.674.197-.898.493a.566.566 0 00.009.673c.161.198.386.315.628.395a4.545 4.545 0 002.515.09c.27-.072.53-.17.728-.377.251-.278.242-.655-.045-.87zm-10.032-.206c-.063-.036-.117-.08-.18-.117a4.455 4.455 0 00-1.266-.368 5.554 5.554 0 00-1.725.01c-.323.053-.646.107-.934.277-.215.126-.323.53-.125.746.224.26.494.44.808.53.449.134.916.215 1.383.25.252 0 .494-.017.745-.008.297.018.566-.054.836-.144a1.69 1.69 0 00.485-.26c.26-.17.341-.7-.027-.916z" fill="#fff"/><path d="M24.546 15.608c.143-.09.206-.233.269-.386.224-.52.323-1.068.314-1.634a.5.5 0 00-.09-.242c-.152-.252-.323-.494-.476-.736-.026-.045-.053-.09-.071-.144-.153-.368-.027-.637.359-.736a3.12 3.12 0 011.32-.027c.341.063.503.395.35.745a1.648 1.648 0 01-.206.341c-.162.234-.341.458-.503.691-.045.072-.099.153-.108.234a2.84 2.84 0 00.279 1.58c.035.072.098.143.143.215.234-.072.35-.233.467-.404.045-.063.081-.143.126-.206.072-.09.17-.126.287-.072.108.045.171.135.153.251a.78.78 0 01-.054.207 1.632 1.632 0 01-.53.628c-.368.252-.745.18-.988-.197-.08-.126-.143-.26-.233-.422-.054.099-.09.188-.144.26-.108.162-.216.332-.35.458a.472.472 0 01-.674-.009c-.27-.242-.368-.575-.44-.925-.018-.116.036-.206.153-.251.108-.045.233.009.287.126.054.099.081.215.117.323.09.197.099.206.242.332zM23.495 12.861c.18.009.296.135.278.314-.009.189-.197.323-.422.314-.189-.009-.314-.125-.305-.296.018-.18.233-.341.449-.332zM27.23 13.866c-.16-.008-.25-.116-.242-.287.01-.18.153-.305.342-.296.197.009.332.135.314.314-.009.198-.108.242-.413.27zM22.66 13.822c.152.009.25.125.233.26-.018.135-.225.314-.36.305-.143-.009-.233-.126-.224-.278.027-.17.18-.305.35-.287zM28.165 14.36c-.189-.018-.287-.098-.287-.242.009-.153.134-.243.323-.234.18.01.287.108.278.252 0 .152-.125.242-.314.224z" fill="#312C28"/><path d="M23.998 13.74c.143.01.251.117.251.252s-.108.225-.242.225a.246.246 0 01-.252-.252c.01-.143.099-.224.243-.224zM26.809 14.513a.223.223 0 01-.189-.252c.018-.116.126-.206.243-.188a.228.228 0 01.188.251.215.215 0 01-.242.189z" fill="#312C28"/><path d="M44.51 39.407c.072-.198.063-.233-.116-.377h-.018c-.162.018-.243.126-.296.27-.207.529-.405 1.068-.63 1.588-.152.36-.332.71-.52 1.05-.09.162-.18.324-.279.485a.345.345 0 01.144-.116c.126.026.243.044.36.071.35-.547.637-1.122.889-1.723.17-.422.314-.835.467-1.248z" fill="#fff"/><path d="M30.922 11.227a1.454 1.454 0 00-.449-.242c-.198-.054-.404-.063-.61-.081a1.58 1.58 0 00-.836.152.962.962 0 00-.314.225c-.225.233-.216.485 0 .673a4.55 4.55 0 002.173-.009c.036-.009.063-.018.09-.027l.054-.08c.126-.243.09-.45-.108-.61zM20.701 11.182a.771.771 0 00-.368-.368 1.918 1.918 0 00-.808-.197c-.207.009-.413 0-.62.018-.314.027-.601.116-.826.35-.126.125-.207.278-.126.466.018.027.027.063.045.09.036.018.081.036.117.045a6.59 6.59 0 001.383.252c.252 0 .494-.018.745-.01h.162c.018-.008.045-.008.063-.017.279-.108.36-.368.233-.629z" fill="#312C28"/><path d="M29.89 49.21c0-.17-.01-.341-.019-.53.09.018.18.036.27.045.467.072.754-.134.799-.53.027-.206-.045-.394-.153-.565-.036-.054-.072-.099-.107-.162.098-.017.18-.026.269-.053a.757.757 0 00.53-.458c.072-.189.09-.377-.045-.548-.278-.34-.575-.682-.979-.88-.278-.134-.566-.278-.862-.377a19.623 19.623 0 01-3.287-1.391c-.925-.485-1.805-1.042-2.695-1.58-.538-.332-1.06-.691-1.598-1.041-.279-.18-.557-.35-.836-.521-.386-.234-.78-.449-1.158-.691-.512-.333-1.015-.674-1.446-1.105-.332-.34-.674-.673-.961-1.068-.305-.413-.62-.817-.934-1.23-.162-.215-.341-.422-.503-.637-.377-.52-.665-1.095-.96-1.67-.558-1.086-.908-2.235-1.142-3.42-.152-.772-.224-1.553-.34-2.325-.18-1.168-.37-2.335-.567-3.502-.152-.88-.296-1.76-.601-2.603-.279-.772-.54-1.553-1.051-2.208-.234-.297-.44-.62-.746-.853a4.232 4.232 0 00-.548-.332c-.152-.072-.26-.027-.314.08-.054.108 0 .207.153.288l.054.027c.135.09.287.161.404.269.449.413.808.907 1.087 1.445.35.692.601 1.419.781 2.173.17.709.296 1.427.422 2.136.153.88.306 1.76.431 2.64.117.745.198 1.499.306 2.244.152 1.104.467 2.163.862 3.196.17.44.395.853.601 1.284.306.646.692 1.23 1.132 1.786.297.377.602.745.88 1.131.413.593.89 1.131 1.437 1.616.7.62 1.491 1.131 2.308 1.59.342.197.674.403 1.006.61.198.125.369.269.566.386.853.53 1.68 1.086 2.55 1.58.576.323 1.15.664 1.752.942.754.35 1.5.7 2.29.97.36.125.71.26 1.06.395.413.161.736.458 1.024.79.126.153.108.314-.063.413a.594.594 0 01-.225.063c-.08.009-.17-.01-.26-.018l-.26-.027c-.108-.01-.207.018-.252.116-.045.108-.036.207.045.297l.153.152c.08.09.18.17.251.27.054.08.099.188.117.296.018.126-.054.206-.189.206-.09 0-.18-.018-.278-.026-.09-.01-.18-.028-.278-.045-.252-.045-.468.143-.378.43.045.135.081.279.081.422 0 .342-.162.458-.458.386a.883.883 0 01-.216-.08c-.197-.126-.404-.243-.592-.386-.315-.243-.593-.521-.907-.745a13.758 13.758 0 00-1.931-1.132c-.934-.458-1.922-.772-2.883-1.13a40.355 40.355 0 00-2.3-.746c-.52-.161-1.023-.359-1.526-.556-.862-.342-1.707-.737-2.497-1.23-.89-.566-1.778-1.15-2.65-1.742-1.373-.943-2.613-2.038-3.628-3.367-.52-.682-.979-1.409-1.284-2.217-.153-.404-.278-.808-.431-1.212-.297-.79-.61-1.57-.898-2.36-.324-.872-.611-1.751-.737-2.676-.072-.503-.116-1.005-.206-1.5-.135-.717-.297-1.427-.45-2.136-.143-.691-.287-1.382-.179-2.1.036-.216.063-.44.099-.656.027-.206.054-.413.09-.61.054-.306.197-.584.35-.844.036-.054.063-.108.09-.17.036-.109 0-.198-.081-.243-.081-.045-.18-.027-.252.054a.809.809 0 00-.098.143 3.01 3.01 0 00-.458 1.41 4.777 4.777 0 01-.108.718c-.081.404-.09.808-.045 1.212.072.655.242 1.293.377 1.93.135.62.243 1.248.341 1.867.117.772.189 1.562.423 2.316.197.638.413 1.275.646 1.904.323.88.665 1.75.988 2.63.234.646.503 1.275.862 1.858.54.88 1.204 1.652 1.913 2.38.54.556 1.14 1.04 1.752 1.507a40.771 40.771 0 003.7 2.47c.934.556 1.94.978 2.955 1.346.673.242 1.356.43 2.038.655.62.207 1.258.368 1.86.638.323.143.655.269.987.404.144.053.297.098.44.152.809.323 1.545.772 2.282 1.23.386.242.718.566 1.068.853.297.242.611.458.98.565.574.162.987-.206.987-.682z" fill="#fff"/><path d="M27.931 28.167c-2.299 1.473-9.385 18.826-8.649 21.456.746 2.622 18.879 10.701 20.217 11.32 1.347.62 12.268-10.96 12.268-10.96s5.488-16.061 4.132-17.345c-1.357-1.284-14.1-6.212-16.104-6.814-2.011-.601-8.613.26-11.864 2.343z" fill="#312C28"/><path d="M28.632 29.469c-1.302.7-5.083 7.433-4.383 8.744.7 1.302 7.212 3.34 8.065 3.734 1.347.62 5.048-8.761 4.365-9.399-.683-.646-6.736-3.78-8.047-3.079zM23.647 40.215c-1.302.7-3.754 7.397-3.053 8.699.7 1.302 5.864 4.165 6.754 4.435 2.002.601 5.685-9.444 5.002-10.082-.683-.637-7.391-3.752-8.703-3.052zM38.7 33.805c-1.303.7-4.401 8.08-3.7 9.381.7 1.302 7.831 3.448 8.72 3.717 2.003.601 4.383-8.744 3.7-9.381-.682-.638-7.409-4.417-8.72-3.717zM33.742 45.215c-1.302.7-4.4 8.08-3.7 9.381.7 1.302 8.577 4.633 9.43 5.019 1.347.62 4.32-10.728 3.637-11.366-.682-.637-8.065-3.734-9.367-3.034z" fill="#ECAA3A"/><path d="M34.514 26.641c-2.092.063-5.28.817-4.598 1.464.683.646 7.4 3.752 8.065 3.734.665-.018 4.599-1.463 3.916-2.1-.682-.638-6.053-3.134-7.383-3.098zM40.667 33.087c.682.646 6.736 3.78 7.4 3.752.665-.017 3.934-1.436 3.251-2.082-.682-.647-6.736-3.78-8.747-4.381-.629-.189-2.578 2.073-1.904 2.71zM39.13 25.842c-1.32.036-3.286.763-2.63.736.655-.027 6.035 2.47 6.035 2.47l2.631-.737-6.035-2.469zM45.849 28.957l-2.632.745 8.748 4.381 3.296-.763-9.412-4.363z" fill="#fff"/><path d="M52.028 36.067s-1.788.96-2.614 1.4c-1.302.701-3.978 9.391-3.035 9.364 1.32-.036 3.601-.655 3.915-2.1.584-2.667 2.416-8.026 1.734-8.664zM55.297 34.649c-1.302.7-1.967.718-1.967.718l-2.353 10.01 1.967-.718 2.353-10.01zM45.112 48.86c-1.284 1.365-3.08 8.044-2.416 8.017.665-.018 4.536-3.448 5.165-4.785.62-1.347 1.203-4.013 1.185-4.668-.018-.656-2.65.071-3.934 1.436zM50.348 46.714l-1.185 4.669L51.112 50l1.203-4.004-1.967.718z" fill="#F26B5C"/></g><defs><clipPath id="clip0"><path fill="#fff" d="M0 0h68v68H0z"/></clipPath></defs></svg>